<?xml version="1.0" standalone="no"?>
<!DOCTYPE svg PUBLIC "-//W3C//DTD SVG 20010904//EN"
 "http://www.w3.org/TR/2001/REC-SVG-20010904/DTD/svg10.dtd">
<svg version="1.0" xmlns="http://www.w3.org/2000/svg"
 width="1024.000000pt" height="1024.000000pt" viewBox="0 0 1024.000000 1024.000000"
 preserveAspectRatio="xMidYMid meet">
<metadata>
Created by potrace 1.14, written by Peter Selinger 2001-2017
</metadata>
<g transform="translate(0.000000,1024.000000) scale(0.100000,-0.100000)"
fill="#000000" stroke="none">
<path d="M3005 8977 l-1790 -673 0 -1574 c0 -1725 -3 -1640 60 -2045 127 -815
473 -1619 1000 -2320 648 -861 1434 -1422 2379 -1695 93 -27 175 -46 182 -42
9 5 -9 31 -59 87 -402 452 -683 982 -791 1490 -54 259 -61 336 -60 685 0 350
12 470 69 720 137 595 431 1106 894 1553 532 512 1154 799 1876 867 141 13
463 13 596 0 333 -33 686 -121 957 -239 l112 -49 -2 1281 -3 1281 -1780 669
c-979 367 -1796 670 -1815 672 -28 4 -394 -130 -1825 -668z"/>
<path d="M6890 5134 c-348 -39 -554 -96 -805 -219 -240 -118 -428 -258 -631
-467 -355 -367 -546 -759 -615 -1258 -20 -144 -17 -507 5 -655 59 -390 212
-743 456 -1050 78 -99 269 -290 372 -373 191 -154 466 -306 681 -376 126 -41
300 -79 442 -97 128 -16 442 -16 567 0 505 63 937 274 1300 633 378 374 595
811 659 1326 15 126 15 440 0 567 -54 440 -229 839 -513 1170 -375 437 -837
699 -1378 780 -99 15 -464 28 -540 19z m365 -919 c115 -30 203 -82 295 -175
147 -147 201 -275 203 -475 1 -129 -16 -205 -70 -315 -49 -100 -186 -239 -288
-292 -369 -191 -820 -12 -959 382 -27 77 -30 96 -30 215 -1 146 12 203 69 314
145 282 470 426 780 346z m80 -1800 c240 -28 484 -99 700 -205 66 -32 129 -65
140 -73 19 -15 19 -16 -10 -58 -17 -24 -64 -79 -105 -123 -186 -197 -408 -328
-662 -392 -142 -36 -388 -45 -540 -19 -317 53 -619 226 -812 467 -102 127
-109 107 66 192 234 114 490 190 728 215 137 14 355 12 495 -4z"/>
</g>
</svg>
